<mxfile host="app.diagrams.net" modified="2023-11-06T15:30:54.599Z" agent="Mozilla/5.0 (Windows NT 10.0; Win64; x64) AppleWebKit/537.36 (KHTML, like Gecko) Chrome/116.0.0.0 Safari/537.36 OPR/102.0.0.0" etag="QvYeXo2Ch2WZRpLUsyxs" version="22.0.8" type="device">
  <diagram id="R2lEEEUBdFMjLlhIrx00" name="Page-1">
    <mxGraphModel dx="2248" dy="898" grid="1" gridSize="10" guides="1" tooltips="1" connect="1" arrows="1" fold="1" page="1" pageScale="1" pageWidth="850" pageHeight="1100" math="0" shadow="0" extFonts="Permanent Marker^https://fonts.googleapis.com/css?family=Permanent+Marker">
      <root>
        <mxCell id="0" />
        <mxCell id="1" parent="0" />
        <mxCell id="byIcehJMI3bdM6_2UqQo-1" value="Felhasználó" style="rounded=0;whiteSpace=wrap;html=1;" parent="1" vertex="1">
          <mxGeometry x="150" y="110" width="100" height="40" as="geometry" />
        </mxCell>
        <mxCell id="byIcehJMI3bdM6_2UqQo-2" value="Teszt" style="rounded=0;whiteSpace=wrap;html=1;" parent="1" vertex="1">
          <mxGeometry x="220" y="600" width="105" height="50" as="geometry" />
        </mxCell>
        <mxCell id="byIcehJMI3bdM6_2UqQo-3" value="Diák" style="rounded=0;whiteSpace=wrap;html=1;" parent="1" vertex="1">
          <mxGeometry x="335" y="230" width="90" height="40" as="geometry" />
        </mxCell>
        <mxCell id="byIcehJMI3bdM6_2UqQo-4" value="jelszó" style="ellipse;whiteSpace=wrap;html=1;" parent="1" vertex="1">
          <mxGeometry x="20" y="150" width="85" height="50" as="geometry" />
        </mxCell>
        <mxCell id="byIcehJMI3bdM6_2UqQo-5" value="&lt;u&gt;id&lt;/u&gt;" style="ellipse;whiteSpace=wrap;html=1;" parent="1" vertex="1">
          <mxGeometry x="230" y="20" width="85" height="50" as="geometry" />
        </mxCell>
        <mxCell id="byIcehJMI3bdM6_2UqQo-6" value="név" style="ellipse;whiteSpace=wrap;html=1;" parent="1" vertex="1">
          <mxGeometry x="120" y="30" width="85" height="50" as="geometry" />
        </mxCell>
        <mxCell id="byIcehJMI3bdM6_2UqQo-7" value="felhasználó név" style="ellipse;whiteSpace=wrap;html=1;" parent="1" vertex="1">
          <mxGeometry x="35" y="80" width="85" height="50" as="geometry" />
        </mxCell>
        <mxCell id="byIcehJMI3bdM6_2UqQo-9" value="" style="triangle;whiteSpace=wrap;html=1;rotation=-90;" parent="1" vertex="1">
          <mxGeometry x="165" y="230" width="40" height="50" as="geometry" />
        </mxCell>
        <mxCell id="byIcehJMI3bdM6_2UqQo-10" value="Tanár" style="rounded=0;whiteSpace=wrap;html=1;" parent="1" vertex="1">
          <mxGeometry x="300" y="310" width="90" height="40" as="geometry" />
        </mxCell>
        <mxCell id="byIcehJMI3bdM6_2UqQo-11" value="Admin" style="rounded=0;whiteSpace=wrap;html=1;" parent="1" vertex="1">
          <mxGeometry x="165" y="340" width="90" height="40" as="geometry" />
        </mxCell>
        <mxCell id="byIcehJMI3bdM6_2UqQo-12" value="" style="triangle;whiteSpace=wrap;html=1;rotation=-90;" parent="1" vertex="1">
          <mxGeometry x="240" y="225" width="40" height="50" as="geometry" />
        </mxCell>
        <mxCell id="byIcehJMI3bdM6_2UqQo-13" value="" style="triangle;whiteSpace=wrap;html=1;rotation=-90;" parent="1" vertex="1">
          <mxGeometry x="300" y="160" width="40" height="50" as="geometry" />
        </mxCell>
        <mxCell id="byIcehJMI3bdM6_2UqQo-15" value="" style="endArrow=none;html=1;rounded=0;exitX=0;exitY=0.5;exitDx=0;exitDy=0;entryX=0.5;entryY=0;entryDx=0;entryDy=0;" parent="1" source="byIcehJMI3bdM6_2UqQo-13" target="byIcehJMI3bdM6_2UqQo-3" edge="1">
          <mxGeometry width="50" height="50" relative="1" as="geometry">
            <mxPoint x="380" y="330" as="sourcePoint" />
            <mxPoint x="430" y="280" as="targetPoint" />
          </mxGeometry>
        </mxCell>
        <mxCell id="byIcehJMI3bdM6_2UqQo-16" value="" style="endArrow=none;html=1;rounded=0;exitX=1;exitY=0.5;exitDx=0;exitDy=0;entryX=1;entryY=0.5;entryDx=0;entryDy=0;" parent="1" source="byIcehJMI3bdM6_2UqQo-1" target="byIcehJMI3bdM6_2UqQo-13" edge="1">
          <mxGeometry width="50" height="50" relative="1" as="geometry">
            <mxPoint x="330" y="215" as="sourcePoint" />
            <mxPoint x="425" y="240" as="targetPoint" />
          </mxGeometry>
        </mxCell>
        <mxCell id="byIcehJMI3bdM6_2UqQo-17" value="" style="endArrow=none;html=1;rounded=0;exitX=0.75;exitY=1;exitDx=0;exitDy=0;entryX=1;entryY=0.5;entryDx=0;entryDy=0;" parent="1" source="byIcehJMI3bdM6_2UqQo-1" target="byIcehJMI3bdM6_2UqQo-12" edge="1">
          <mxGeometry width="50" height="50" relative="1" as="geometry">
            <mxPoint x="260" y="140" as="sourcePoint" />
            <mxPoint x="330" y="175" as="targetPoint" />
          </mxGeometry>
        </mxCell>
        <mxCell id="byIcehJMI3bdM6_2UqQo-18" value="" style="endArrow=none;html=1;rounded=0;exitX=0.25;exitY=1;exitDx=0;exitDy=0;entryX=1;entryY=0.5;entryDx=0;entryDy=0;" parent="1" source="byIcehJMI3bdM6_2UqQo-1" target="byIcehJMI3bdM6_2UqQo-9" edge="1">
          <mxGeometry width="50" height="50" relative="1" as="geometry">
            <mxPoint x="235" y="160" as="sourcePoint" />
            <mxPoint x="200" y="240" as="targetPoint" />
          </mxGeometry>
        </mxCell>
        <mxCell id="byIcehJMI3bdM6_2UqQo-19" value="" style="endArrow=none;html=1;rounded=0;entryX=0.5;entryY=0;entryDx=0;entryDy=0;exitX=0;exitY=0.5;exitDx=0;exitDy=0;" parent="1" source="byIcehJMI3bdM6_2UqQo-9" target="byIcehJMI3bdM6_2UqQo-11" edge="1">
          <mxGeometry width="50" height="50" relative="1" as="geometry">
            <mxPoint x="200" y="280" as="sourcePoint" />
            <mxPoint x="210" y="250" as="targetPoint" />
          </mxGeometry>
        </mxCell>
        <mxCell id="byIcehJMI3bdM6_2UqQo-20" value="" style="endArrow=none;html=1;rounded=0;entryX=0.5;entryY=0;entryDx=0;entryDy=0;exitX=0;exitY=0.5;exitDx=0;exitDy=0;" parent="1" source="byIcehJMI3bdM6_2UqQo-12" target="byIcehJMI3bdM6_2UqQo-10" edge="1">
          <mxGeometry width="50" height="50" relative="1" as="geometry">
            <mxPoint x="195" y="285" as="sourcePoint" />
            <mxPoint x="220" y="350" as="targetPoint" />
          </mxGeometry>
        </mxCell>
        <mxCell id="byIcehJMI3bdM6_2UqQo-21" value="bejelentkezett status" style="ellipse;whiteSpace=wrap;html=1;" parent="1" vertex="1">
          <mxGeometry x="35" y="220" width="85" height="50" as="geometry" />
        </mxCell>
        <mxCell id="byIcehJMI3bdM6_2UqQo-22" value="" style="endArrow=none;html=1;rounded=0;exitX=1;exitY=0.5;exitDx=0;exitDy=0;entryX=0;entryY=0.75;entryDx=0;entryDy=0;" parent="1" source="byIcehJMI3bdM6_2UqQo-4" target="byIcehJMI3bdM6_2UqQo-1" edge="1">
          <mxGeometry width="50" height="50" relative="1" as="geometry">
            <mxPoint x="120" y="230" as="sourcePoint" />
            <mxPoint x="170" y="180" as="targetPoint" />
          </mxGeometry>
        </mxCell>
        <mxCell id="byIcehJMI3bdM6_2UqQo-23" value="" style="endArrow=none;html=1;rounded=0;exitX=1;exitY=0;exitDx=0;exitDy=0;" parent="1" source="byIcehJMI3bdM6_2UqQo-21" edge="1">
          <mxGeometry width="50" height="50" relative="1" as="geometry">
            <mxPoint x="115" y="185" as="sourcePoint" />
            <mxPoint x="160" y="150" as="targetPoint" />
          </mxGeometry>
        </mxCell>
        <mxCell id="byIcehJMI3bdM6_2UqQo-24" value="" style="endArrow=none;html=1;rounded=0;exitX=1.002;exitY=0.599;exitDx=0;exitDy=0;exitPerimeter=0;entryX=0;entryY=0.5;entryDx=0;entryDy=0;" parent="1" source="byIcehJMI3bdM6_2UqQo-7" target="byIcehJMI3bdM6_2UqQo-1" edge="1">
          <mxGeometry width="50" height="50" relative="1" as="geometry">
            <mxPoint x="118" y="237" as="sourcePoint" />
            <mxPoint x="170" y="160" as="targetPoint" />
          </mxGeometry>
        </mxCell>
        <mxCell id="byIcehJMI3bdM6_2UqQo-25" value="" style="endArrow=none;html=1;rounded=0;exitX=0.5;exitY=1;exitDx=0;exitDy=0;entryX=0.25;entryY=0;entryDx=0;entryDy=0;" parent="1" source="byIcehJMI3bdM6_2UqQo-6" target="byIcehJMI3bdM6_2UqQo-1" edge="1">
          <mxGeometry width="50" height="50" relative="1" as="geometry">
            <mxPoint x="128" y="247" as="sourcePoint" />
            <mxPoint x="180" y="170" as="targetPoint" />
          </mxGeometry>
        </mxCell>
        <mxCell id="byIcehJMI3bdM6_2UqQo-26" value="" style="endArrow=none;html=1;rounded=0;exitX=0.75;exitY=0;exitDx=0;exitDy=0;entryX=0;entryY=1;entryDx=0;entryDy=0;" parent="1" source="byIcehJMI3bdM6_2UqQo-1" target="byIcehJMI3bdM6_2UqQo-5" edge="1">
          <mxGeometry width="50" height="50" relative="1" as="geometry">
            <mxPoint x="138" y="257" as="sourcePoint" />
            <mxPoint x="190" y="180" as="targetPoint" />
          </mxGeometry>
        </mxCell>
        <mxCell id="byIcehJMI3bdM6_2UqQo-28" value="létrehozás dátuma" style="ellipse;whiteSpace=wrap;html=1;" parent="1" vertex="1">
          <mxGeometry x="35" y="590" width="85" height="50" as="geometry" />
        </mxCell>
        <mxCell id="byIcehJMI3bdM6_2UqQo-29" value="név" style="ellipse;whiteSpace=wrap;html=1;" parent="1" vertex="1">
          <mxGeometry x="60" y="525" width="85" height="50" as="geometry" />
        </mxCell>
        <mxCell id="byIcehJMI3bdM6_2UqQo-30" value="&lt;u&gt;id&lt;/u&gt;" style="ellipse;whiteSpace=wrap;html=1;" parent="1" vertex="1">
          <mxGeometry x="165" y="510" width="85" height="50" as="geometry" />
        </mxCell>
        <mxCell id="byIcehJMI3bdM6_2UqQo-32" value="minimum pontszám" style="ellipse;whiteSpace=wrap;html=1;" parent="1" vertex="1">
          <mxGeometry x="65" y="670" width="85" height="50" as="geometry" />
        </mxCell>
        <mxCell id="byIcehJMI3bdM6_2UqQo-33" value="létrehoz" style="rhombus;whiteSpace=wrap;html=1;" parent="1" vertex="1">
          <mxGeometry x="300" y="430" width="105" height="70" as="geometry" />
        </mxCell>
        <mxCell id="byIcehJMI3bdM6_2UqQo-34" value="" style="endArrow=none;html=1;rounded=0;entryX=0.5;entryY=0;entryDx=0;entryDy=0;exitX=0.5;exitY=1;exitDx=0;exitDy=0;" parent="1" source="byIcehJMI3bdM6_2UqQo-10" target="byIcehJMI3bdM6_2UqQo-33" edge="1">
          <mxGeometry width="50" height="50" relative="1" as="geometry">
            <mxPoint x="230" y="540" as="sourcePoint" />
            <mxPoint x="280" y="490" as="targetPoint" />
          </mxGeometry>
        </mxCell>
        <mxCell id="byIcehJMI3bdM6_2UqQo-36" value="" style="curved=1;endArrow=classic;html=1;rounded=0;exitX=0;exitY=1;exitDx=0;exitDy=0;entryX=0.5;entryY=0;entryDx=0;entryDy=0;" parent="1" source="byIcehJMI3bdM6_2UqQo-33" target="byIcehJMI3bdM6_2UqQo-2" edge="1">
          <mxGeometry width="50" height="50" relative="1" as="geometry">
            <mxPoint x="310" y="580" as="sourcePoint" />
            <mxPoint x="360" y="530" as="targetPoint" />
            <Array as="points">
              <mxPoint x="330" y="550" />
              <mxPoint x="290" y="540" />
            </Array>
          </mxGeometry>
        </mxCell>
        <mxCell id="byIcehJMI3bdM6_2UqQo-37" value="" style="endArrow=none;html=1;rounded=0;entryX=0.25;entryY=0;entryDx=0;entryDy=0;exitX=0.5;exitY=1;exitDx=0;exitDy=0;" parent="1" source="byIcehJMI3bdM6_2UqQo-30" target="byIcehJMI3bdM6_2UqQo-2" edge="1">
          <mxGeometry width="50" height="50" relative="1" as="geometry">
            <mxPoint x="160" y="670" as="sourcePoint" />
            <mxPoint x="210" y="620" as="targetPoint" />
          </mxGeometry>
        </mxCell>
        <mxCell id="byIcehJMI3bdM6_2UqQo-38" value="" style="endArrow=none;html=1;rounded=0;entryX=0;entryY=0.5;entryDx=0;entryDy=0;exitX=1;exitY=0.5;exitDx=0;exitDy=0;" parent="1" source="byIcehJMI3bdM6_2UqQo-29" target="byIcehJMI3bdM6_2UqQo-2" edge="1">
          <mxGeometry width="50" height="50" relative="1" as="geometry">
            <mxPoint x="170" y="680" as="sourcePoint" />
            <mxPoint x="256" y="610" as="targetPoint" />
          </mxGeometry>
        </mxCell>
        <mxCell id="byIcehJMI3bdM6_2UqQo-39" value="" style="endArrow=none;html=1;rounded=0;entryX=0;entryY=0.75;entryDx=0;entryDy=0;exitX=1;exitY=0.5;exitDx=0;exitDy=0;" parent="1" source="byIcehJMI3bdM6_2UqQo-28" target="byIcehJMI3bdM6_2UqQo-2" edge="1">
          <mxGeometry width="50" height="50" relative="1" as="geometry">
            <mxPoint x="180" y="690" as="sourcePoint" />
            <mxPoint x="266" y="620" as="targetPoint" />
          </mxGeometry>
        </mxCell>
        <mxCell id="byIcehJMI3bdM6_2UqQo-41" value="" style="endArrow=none;html=1;rounded=0;exitX=1;exitY=0;exitDx=0;exitDy=0;" parent="1" source="byIcehJMI3bdM6_2UqQo-32" target="byIcehJMI3bdM6_2UqQo-2" edge="1">
          <mxGeometry width="50" height="50" relative="1" as="geometry">
            <mxPoint x="140" y="635" as="sourcePoint" />
            <mxPoint x="240" y="658" as="targetPoint" />
          </mxGeometry>
        </mxCell>
        <mxCell id="byIcehJMI3bdM6_2UqQo-42" value="Kérdés" style="rounded=0;whiteSpace=wrap;html=1;" parent="1" vertex="1">
          <mxGeometry x="540" y="615" width="110" height="50" as="geometry" />
        </mxCell>
        <mxCell id="byIcehJMI3bdM6_2UqQo-43" value="pontszám" style="ellipse;whiteSpace=wrap;html=1;" parent="1" vertex="1">
          <mxGeometry x="362.5" y="695" width="100" height="60" as="geometry" />
        </mxCell>
        <mxCell id="byIcehJMI3bdM6_2UqQo-44" value="&lt;u&gt;id&lt;/u&gt;" style="ellipse;whiteSpace=wrap;html=1;" parent="1" vertex="1">
          <mxGeometry x="452.5" y="745" width="100" height="60" as="geometry" />
        </mxCell>
        <mxCell id="byIcehJMI3bdM6_2UqQo-46" value="szöveg" style="ellipse;whiteSpace=wrap;html=1;" parent="1" vertex="1">
          <mxGeometry x="712.5" y="575" width="100" height="60" as="geometry" />
        </mxCell>
        <mxCell id="byIcehJMI3bdM6_2UqQo-49" value="" style="endArrow=none;html=1;rounded=0;entryX=0.25;entryY=1;entryDx=0;entryDy=0;" parent="1" source="byIcehJMI3bdM6_2UqQo-43" target="byIcehJMI3bdM6_2UqQo-42" edge="1">
          <mxGeometry width="50" height="50" relative="1" as="geometry">
            <mxPoint x="472.5" y="715" as="sourcePoint" />
            <mxPoint x="522.5" y="665" as="targetPoint" />
          </mxGeometry>
        </mxCell>
        <mxCell id="byIcehJMI3bdM6_2UqQo-50" value="" style="endArrow=none;html=1;rounded=0;exitX=1;exitY=0;exitDx=0;exitDy=0;entryX=0.5;entryY=1;entryDx=0;entryDy=0;" parent="1" source="byIcehJMI3bdM6_2UqQo-44" target="byIcehJMI3bdM6_2UqQo-42" edge="1">
          <mxGeometry width="50" height="50" relative="1" as="geometry">
            <mxPoint x="532.5" y="745" as="sourcePoint" />
            <mxPoint x="582.5" y="695" as="targetPoint" />
          </mxGeometry>
        </mxCell>
        <mxCell id="byIcehJMI3bdM6_2UqQo-53" value="" style="endArrow=none;html=1;rounded=0;exitX=1;exitY=0.5;exitDx=0;exitDy=0;entryX=0;entryY=0.5;entryDx=0;entryDy=0;" parent="1" source="byIcehJMI3bdM6_2UqQo-42" target="byIcehJMI3bdM6_2UqQo-46" edge="1">
          <mxGeometry width="50" height="50" relative="1" as="geometry">
            <mxPoint x="662.5" y="615" as="sourcePoint" />
            <mxPoint x="712.5" y="565" as="targetPoint" />
          </mxGeometry>
        </mxCell>
        <mxCell id="byIcehJMI3bdM6_2UqQo-54" value="kiválaszt" style="rhombus;whiteSpace=wrap;html=1;" parent="1" vertex="1">
          <mxGeometry x="395" y="590" width="105" height="70" as="geometry" />
        </mxCell>
        <mxCell id="byIcehJMI3bdM6_2UqQo-55" value="" style="endArrow=none;html=1;rounded=0;exitX=1;exitY=0.5;exitDx=0;exitDy=0;entryX=0;entryY=0.5;entryDx=0;entryDy=0;" parent="1" source="byIcehJMI3bdM6_2UqQo-54" target="byIcehJMI3bdM6_2UqQo-42" edge="1">
          <mxGeometry width="50" height="50" relative="1" as="geometry">
            <mxPoint x="500" y="580" as="sourcePoint" />
            <mxPoint x="435" y="765" as="targetPoint" />
          </mxGeometry>
        </mxCell>
        <mxCell id="byIcehJMI3bdM6_2UqQo-57" value="kitöltések" style="rounded=0;whiteSpace=wrap;html=1;" parent="1" vertex="1">
          <mxGeometry x="600" y="375" width="110" height="50" as="geometry" />
        </mxCell>
        <mxCell id="byIcehJMI3bdM6_2UqQo-60" value="" style="endArrow=none;html=1;rounded=0;entryX=0;entryY=0.5;entryDx=0;entryDy=0;exitX=1;exitY=0.5;exitDx=0;exitDy=0;" parent="1" source="byIcehJMI3bdM6_2UqQo-2" target="byIcehJMI3bdM6_2UqQo-54" edge="1">
          <mxGeometry width="50" height="50" relative="1" as="geometry">
            <mxPoint x="340" y="660" as="sourcePoint" />
            <mxPoint x="390" y="610" as="targetPoint" />
          </mxGeometry>
        </mxCell>
        <mxCell id="sRnjbrfBSClty2O4owVd-14" value="&lt;u&gt;id&lt;/u&gt;" style="ellipse;whiteSpace=wrap;html=1;" parent="1" vertex="1">
          <mxGeometry x="510" y="275" width="85" height="50" as="geometry" />
        </mxCell>
        <mxCell id="sRnjbrfBSClty2O4owVd-15" value="pontszám" style="ellipse;whiteSpace=wrap;html=1;" parent="1" vertex="1">
          <mxGeometry x="750" y="370" width="85" height="50" as="geometry" />
        </mxCell>
        <mxCell id="sRnjbrfBSClty2O4owVd-16" value="dátum" style="ellipse;whiteSpace=wrap;html=1;" parent="1" vertex="1">
          <mxGeometry x="735" y="290" width="85" height="50" as="geometry" />
        </mxCell>
        <mxCell id="sRnjbrfBSClty2O4owVd-20" value="" style="endArrow=none;html=1;rounded=0;entryX=0.238;entryY=0.976;entryDx=0;entryDy=0;exitX=1;exitY=0.5;exitDx=0;exitDy=0;entryPerimeter=0;" parent="1" source="byIcehJMI3bdM6_2UqQo-57" target="sRnjbrfBSClty2O4owVd-16" edge="1">
          <mxGeometry width="50" height="50" relative="1" as="geometry">
            <mxPoint x="665" y="385" as="sourcePoint" />
            <mxPoint x="698" y="345" as="targetPoint" />
          </mxGeometry>
        </mxCell>
        <mxCell id="sRnjbrfBSClty2O4owVd-21" value="" style="endArrow=none;html=1;rounded=0;entryX=0;entryY=0.5;entryDx=0;entryDy=0;exitX=1;exitY=1;exitDx=0;exitDy=0;" parent="1" source="byIcehJMI3bdM6_2UqQo-57" target="sRnjbrfBSClty2O4owVd-15" edge="1">
          <mxGeometry width="50" height="50" relative="1" as="geometry">
            <mxPoint x="720" y="410" as="sourcePoint" />
            <mxPoint x="775" y="374" as="targetPoint" />
          </mxGeometry>
        </mxCell>
        <mxCell id="sRnjbrfBSClty2O4owVd-22" value="" style="endArrow=none;html=1;rounded=0;entryX=0.25;entryY=0;entryDx=0;entryDy=0;exitX=0.5;exitY=1;exitDx=0;exitDy=0;" parent="1" source="sRnjbrfBSClty2O4owVd-14" target="byIcehJMI3bdM6_2UqQo-57" edge="1">
          <mxGeometry width="50" height="50" relative="1" as="geometry">
            <mxPoint x="720" y="435" as="sourcePoint" />
            <mxPoint x="753" y="440" as="targetPoint" />
          </mxGeometry>
        </mxCell>
        <mxCell id="sRnjbrfBSClty2O4owVd-26" value="bead" style="rhombus;whiteSpace=wrap;html=1;" parent="1" vertex="1">
          <mxGeometry x="425" y="330" width="105" height="70" as="geometry" />
        </mxCell>
        <mxCell id="sRnjbrfBSClty2O4owVd-27" value="" style="endArrow=none;html=1;rounded=0;exitX=1;exitY=0.5;exitDx=0;exitDy=0;entryX=0;entryY=0.5;entryDx=0;entryDy=0;" parent="1" source="sRnjbrfBSClty2O4owVd-26" target="byIcehJMI3bdM6_2UqQo-57" edge="1">
          <mxGeometry width="50" height="50" relative="1" as="geometry">
            <mxPoint x="555" y="440" as="sourcePoint" />
            <mxPoint x="532.5" y="200" as="targetPoint" />
          </mxGeometry>
        </mxCell>
        <mxCell id="sRnjbrfBSClty2O4owVd-28" value="" style="endArrow=none;html=1;rounded=0;entryX=0;entryY=0.5;entryDx=0;entryDy=0;exitX=0.75;exitY=1;exitDx=0;exitDy=0;" parent="1" source="byIcehJMI3bdM6_2UqQo-3" target="sRnjbrfBSClty2O4owVd-26" edge="1">
          <mxGeometry width="50" height="50" relative="1" as="geometry">
            <mxPoint x="415" y="50" as="sourcePoint" />
            <mxPoint x="465" y="265" as="targetPoint" />
          </mxGeometry>
        </mxCell>
        <mxCell id="sRnjbrfBSClty2O4owVd-35" value="" style="endArrow=none;html=1;rounded=0;entryX=0.75;entryY=1;entryDx=0;entryDy=0;exitX=0.5;exitY=0;exitDx=0;exitDy=0;" parent="1" source="sRnjbrfBSClty2O4owVd-37" target="byIcehJMI3bdM6_2UqQo-42" edge="1">
          <mxGeometry width="50" height="50" relative="1" as="geometry">
            <mxPoint x="695" y="685" as="sourcePoint" />
            <mxPoint x="790" y="645" as="targetPoint" />
          </mxGeometry>
        </mxCell>
        <mxCell id="sRnjbrfBSClty2O4owVd-37" value="jó válasz" style="ellipse;whiteSpace=wrap;html=1;" parent="1" vertex="1">
          <mxGeometry x="570" y="765" width="100" height="60" as="geometry" />
        </mxCell>
        <mxCell id="sRnjbrfBSClty2O4owVd-38" value="rossz válasz1" style="ellipse;whiteSpace=wrap;html=1;" parent="1" vertex="1">
          <mxGeometry x="690" y="755" width="100" height="60" as="geometry" />
        </mxCell>
        <mxCell id="sRnjbrfBSClty2O4owVd-39" value="rossz válasz2" style="ellipse;whiteSpace=wrap;html=1;" parent="1" vertex="1">
          <mxGeometry x="720" y="675" width="100" height="60" as="geometry" />
        </mxCell>
        <mxCell id="sRnjbrfBSClty2O4owVd-40" value="" style="endArrow=none;html=1;rounded=0;entryX=1;entryY=1;entryDx=0;entryDy=0;exitX=0;exitY=0;exitDx=0;exitDy=0;" parent="1" source="sRnjbrfBSClty2O4owVd-38" target="byIcehJMI3bdM6_2UqQo-42" edge="1">
          <mxGeometry width="50" height="50" relative="1" as="geometry">
            <mxPoint x="630" y="775" as="sourcePoint" />
            <mxPoint x="633" y="675" as="targetPoint" />
          </mxGeometry>
        </mxCell>
        <mxCell id="sRnjbrfBSClty2O4owVd-41" value="" style="endArrow=none;html=1;rounded=0;entryX=1;entryY=0.75;entryDx=0;entryDy=0;exitX=0;exitY=0.5;exitDx=0;exitDy=0;" parent="1" source="sRnjbrfBSClty2O4owVd-39" target="byIcehJMI3bdM6_2UqQo-42" edge="1">
          <mxGeometry width="50" height="50" relative="1" as="geometry">
            <mxPoint x="725" y="784" as="sourcePoint" />
            <mxPoint x="660" y="675" as="targetPoint" />
          </mxGeometry>
        </mxCell>
        <mxCell id="c-r0LJGC-98aP1DWqlSM-1" value="válaszok" style="rounded=0;whiteSpace=wrap;html=1;" parent="1" vertex="1">
          <mxGeometry x="600" y="150" width="110" height="50" as="geometry" />
        </mxCell>
        <mxCell id="c-r0LJGC-98aP1DWqlSM-3" value="&lt;u&gt;id&lt;/u&gt;" style="ellipse;whiteSpace=wrap;html=1;" parent="1" vertex="1">
          <mxGeometry x="500" y="60" width="85" height="50" as="geometry" />
        </mxCell>
        <mxCell id="c-r0LJGC-98aP1DWqlSM-4" value="jó/rossz" style="ellipse;whiteSpace=wrap;html=1;" parent="1" vertex="1">
          <mxGeometry x="625" y="50" width="85" height="50" as="geometry" />
        </mxCell>
        <mxCell id="c-r0LJGC-98aP1DWqlSM-5" value="szöveg" style="ellipse;whiteSpace=wrap;html=1;" parent="1" vertex="1">
          <mxGeometry x="735" y="70" width="85" height="50" as="geometry" />
        </mxCell>
        <mxCell id="c-r0LJGC-98aP1DWqlSM-6" value="" style="endArrow=none;html=1;rounded=0;entryX=1;entryY=1;entryDx=0;entryDy=0;" parent="1" target="c-r0LJGC-98aP1DWqlSM-3" edge="1">
          <mxGeometry width="50" height="50" relative="1" as="geometry">
            <mxPoint x="600" y="170" as="sourcePoint" />
            <mxPoint x="600" y="140" as="targetPoint" />
          </mxGeometry>
        </mxCell>
        <mxCell id="c-r0LJGC-98aP1DWqlSM-8" value="" style="endArrow=none;html=1;rounded=0;entryX=0.5;entryY=1;entryDx=0;entryDy=0;exitX=0.5;exitY=0;exitDx=0;exitDy=0;" parent="1" source="c-r0LJGC-98aP1DWqlSM-1" target="c-r0LJGC-98aP1DWqlSM-4" edge="1">
          <mxGeometry width="50" height="50" relative="1" as="geometry">
            <mxPoint x="610" y="180" as="sourcePoint" />
            <mxPoint x="555" y="123" as="targetPoint" />
          </mxGeometry>
        </mxCell>
        <mxCell id="c-r0LJGC-98aP1DWqlSM-9" value="" style="endArrow=none;html=1;rounded=0;entryX=0;entryY=1;entryDx=0;entryDy=0;exitX=1;exitY=0;exitDx=0;exitDy=0;" parent="1" source="c-r0LJGC-98aP1DWqlSM-1" target="c-r0LJGC-98aP1DWqlSM-5" edge="1">
          <mxGeometry width="50" height="50" relative="1" as="geometry">
            <mxPoint x="620" y="190" as="sourcePoint" />
            <mxPoint x="565" y="133" as="targetPoint" />
          </mxGeometry>
        </mxCell>
        <mxCell id="c-r0LJGC-98aP1DWqlSM-10" value="válaszolt" style="rhombus;whiteSpace=wrap;html=1;" parent="1" vertex="1">
          <mxGeometry x="605" y="225" width="105" height="70" as="geometry" />
        </mxCell>
        <mxCell id="c-r0LJGC-98aP1DWqlSM-11" value="" style="endArrow=none;html=1;rounded=0;entryX=0.5;entryY=0;entryDx=0;entryDy=0;exitX=0.5;exitY=1;exitDx=0;exitDy=0;" parent="1" source="c-r0LJGC-98aP1DWqlSM-1" target="c-r0LJGC-98aP1DWqlSM-10" edge="1">
          <mxGeometry width="50" height="50" relative="1" as="geometry">
            <mxPoint x="450" y="260" as="sourcePoint" />
            <mxPoint x="473" y="410" as="targetPoint" />
          </mxGeometry>
        </mxCell>
        <mxCell id="c-r0LJGC-98aP1DWqlSM-12" value="" style="endArrow=none;html=1;rounded=0;entryX=0.5;entryY=0;entryDx=0;entryDy=0;" parent="1" source="c-r0LJGC-98aP1DWqlSM-10" target="byIcehJMI3bdM6_2UqQo-57" edge="1">
          <mxGeometry width="50" height="50" relative="1" as="geometry">
            <mxPoint x="660" y="300" as="sourcePoint" />
            <mxPoint x="668" y="235" as="targetPoint" />
          </mxGeometry>
        </mxCell>
      </root>
    </mxGraphModel>
  </diagram>
</mxfile>
